<svg version="1.2" xmlns="http://www.w3.org/2000/svg" viewBox="0 0 800 800" width="800" height="800"><path d="m317.2 633h166.1c7.8 0 12.6-4.9 12.6-12.7v-36.7c0-55.5 80.8-91.3 80.8-190.4 0-104.4-70.7-174.2-176.5-174.2-105.8 0-176.2 69.8-176.2 174.2 0 99.1 80.5 134.9 80.5 190.4v36.7c0 7.8 5.1 12.7 12.7 12.7zm21.5-48.9c0-67.5-80.1-103.5-80.1-190.7 0-84 56.7-139.8 141.6-139.8 84.9 0 141.8 55.8 141.8 139.8 0 87.2-80.3 123.2-80.3 190.7v14.2h-123zm-13 110.8h149.1c11.7 0 21.1-9.6 21.1-21.5 0-12-9.4-21.6-21.1-21.6h-149.1c-11.7 0-21.2 9.6-21.2 21.6 0 11.9 9.5 21.5 21.2 21.5zm74.5 55.3c31.7 0 54-14.4 56.3-36.7h-112.5c2.1 22.3 24.3 36.7 56.2 36.7z"/><path  d="m419.1 83.3c0-10.3-8.8-19.1-19.1-19.1-10.3 0-19.1 8.8-19.1 19.1v67.7c0 10.5 8.8 19.3 19.1 19.3 10.3 0 19.1-8.8 19.1-19.3zm-211.5 144.1c7.3 7.2 19.6 7.2 26.8 0 7.5-7.5 7.5-19.8 0-27l-47.4-47.9c-7.3-7.3-19.6-7.5-27-0.2-7.3 7.2-7.3 19.5 0 27zm355.3-24.9c-7.3 7.3-7.3 19.6 0 27.1 7.4 7.2 19.9 7.2 27.2 0l47.9-47.9c7.5-7.5 7.5-19.8 0-27.3-7.3-7.2-19.6-7.2-27 0zm146.3 189.1c10.3 0 19.1-8.8 19.1-19.1 0-10.3-8.8-19.1-19.1-19.1h-67.7c-10.5 0-19.3 8.8-19.3 19.1 0 10.3 8.8 19.1 19.3 19.1zm-618.5-38.2c-10.3 0-19.1 8.8-19.1 19.1 0 10.3 8.8 19.1 19.1 19.1h67.9c10.6 0 19.3-8.8 19.3-19.1 0-10.3-8.7-19.1-19.3-19.1z"/></svg>