<svg version="1.2" xmlns="http://www.w3.org/2000/svg" viewBox="0 0 2836 2836" width="800" height="800"><path d="m708.6 444.4c26.3 0 51.9 1.7 76.5 4.8l296.8-161.8c3.6-55.1 44-103 107.6-136.5 59.6-31.4 141.1-50.8 230.3-50.8 89.2 0 170.7 19.4 230.3 50.8 64.3 33.9 104.9 82.4 107.7 138.3l293.5 160c24.6-3.1 50.2-4.8 76.5-4.8 89.2 0 170.7 19.4 230.3 50.8 66.6 35.1 107.8 86.1 107.8 144.5q0 3.3-0.1 6.5v29l346.6 189.1c12.9 5.6 21.9 18.4 21.9 33.3v1049.2h-0.1c-0.1 12.8-6.9 25.3-19 31.8l-1376.9 750.8-0.3 0.2-0.2 0.2-0.3 0.2-0.3 0.1-0.5 0.4-0.6 0.3-0.3 0.2-0.3 0.1-0.3 0.2-0.3 0.1-0.2 0.2-0.3 0.1-0.3 0.2-0.3 0.1-0.3 0.1-0.1 0.1-0.4 0.2h-0.1l-0.3 0.1-0.3 0.2-0.3 0.1-0.3 0.1-0.3 0.1-0.3 0.2-0.3 0.1-0.3 0.1h-0.1l-0.3 0.1-0.2 0.1h-0.1l-0.3 0.1-0.3 0.1-0.2 0.1-0.4 0.1-0.4 0.1-0.3 0.1-0.3 0.1-0.5 0.1-0.5 0.1-0.9 0.2-0.2 0.1h-0.2l-0.6 0.1-0.7 0.1-0.3 0.1-0.8 0.1h-0.1l-0.8 0.1h-0.1-0.3l-0.6 0.1h-0.9l-0.2 0.1h-0.6-0.1-0.1-0.9-0.9-0.1-0.7l-0.2-0.1h-0.9l-0.6-0.1h-0.3-0.1l-0.8-0.1-0.9-0.1-0.3-0.1-0.6-0.1h-0.1l-0.6-0.1h-0.2l-0.1-0.1-0.7-0.1-0.3-0.1-0.5-0.1-0.4-0.1h-0.1l-0.3-0.1-0.3-0.1-0.4-0.1-0.3-0.1h-0.1l-0.5-0.2-0.3-0.1h-0.1l-0.2-0.1-0.3-0.1h-0.1l-0.2-0.1-0.3-0.1-1-0.4-0.3-0.1-0.3-0.2-0.3-0.1h-0.1l-0.4-0.2-0.1-0.1-0.3-0.1-0.3-0.1-0.2-0.2-0.3-0.1-0.3-0.2-0.3-0.1-0.3-0.2-0.3-0.1-0.3-0.2-0.5-0.3-0.3-0.2-0.3-0.2-0.3-0.1-0.2-0.2-0.3-0.2-0.3-0.2-1376.9-750.8c-12.1-6.5-18.9-19-18.9-31.8h-0.2v-1049.2c0-14.9 9-27.7 21.9-33.3l346.7-189.1v-28.9q-0.2-3.3-0.2-6.6c0-58.4 41.2-109.4 107.8-144.5 59.7-31.4 141.1-50.8 230.3-50.8zm2052.9 514.4l-1306.9 712.6v966.6l1306.9-712.7zm-1343.3 649.9l1304-711-256.4-139.8 0.1 89.1h0.1c0 58.5-41.2 109.4-107.9 144.5-59.6 31.4-141.1 50.8-230.3 50.8-89.3 0-170.8-19.4-230.4-50.8-66.6-35.1-107.9-86.1-107.9-144.5h0.2l0.1-200.7q-0.2-3.2-0.2-6.5c0-58.5 41.2-109.4 107.9-144.5 14.7-7.8 30.8-14.8 48.1-21l-187.8-102.4 0.1 130.8h0.1c0 58.5-41.2 109.4-107.8 144.5-59.7 31.4-141.2 50.8-230.4 50.8-89.2 0-170.7-19.4-230.4-50.8-66.6-35.1-107.8-86-107.8-144.5h0.1l0.1-132.6-191 104.2c17.3 6.2 33.4 13.2 48.1 21 66.7 35.1 107.9 86 107.9 144.5q0 3.3-0.2 6.5l0.1 200.7h0.2c0 58.5-41.3 109.4-107.9 144.5-59.6 31.4-141.1 50.8-230.4 50.8-89.2 0-170.7-19.4-230.3-50.8-66.7-35.1-107.9-86.1-107.9-144.5h0.2v-89.1l-256.3 139.8zm-36.4 62.7l-1307-712.6v966.6l1307 712.6zm375.9-625.8l0.1 200.7h0.2c0 58.5-41.3 109.4-107.9 144.5-59.6 31.4-141.1 50.9-230.4 50.9-89.2 0-170.7-19.5-230.3-50.9-66.7-35.1-107.9-86-107.9-144.5h0.2l0.1-200.6q-0.2-3.3-0.2-6.6c0-58.4 41.2-109.4 107.8-144.5 59.6-31.4 141.1-50.8 230.3-50.8 89.2 0 170.7 19.4 230.3 50.8 66.7 35.1 107.9 86.1 107.9 144.5q0 3.3-0.2 6.5zm-603.5 116.3l-0.1 84.4h0.2c0 29.3 26.3 57.9 68.9 80.3 49.6 26.1 119.1 42.3 196.5 42.3 77.5 0 146.9-16.2 196.6-42.3 42.5-22.4 68.9-51 68.9-80.3h0.1v-84.4c-10.8 7.8-22.6 15.1-35.3 21.8-59.6 31.4-141.1 50.8-230.3 50.8-89.2 0-170.7-19.4-230.3-50.8-12.7-6.7-24.5-14-35.2-21.8zm462-203c-49.6-26.2-119-42.3-196.5-42.3-77.4 0-146.8 16.1-196.4 42.3-42.6 22.4-69 50.9-69 80.2 0 29.4 26.4 57.9 69 80.3 49.6 26.2 119 42.3 196.4 42.3 77.5 0 146.9-16.1 196.5-42.3 42.6-22.4 68.9-50.9 68.9-80.3 0-29.3-26.3-57.8-68.9-80.2zm-462-540.6l-0.1 84.4h0.2c0 29.3 26.3 57.8 68.9 80.3 49.6 26.1 119.1 42.2 196.5 42.2 77.5 0 146.9-16.1 196.6-42.2 42.5-22.5 68.9-51 68.9-80.3h0.1v-84.4c-10.8 7.8-22.6 15-35.3 21.7-59.6 31.4-141.1 50.8-230.3 50.8-89.2 0-170.7-19.4-230.3-50.8-12.7-6.7-24.5-13.9-35.2-21.7zm462-203.1c-49.6-26.1-119-42.3-196.5-42.3-77.4 0-146.8 16.2-196.4 42.3-42.6 22.4-69 51-69 80.3 0 29.3 26.4 57.8 69 80.3 49.6 26.1 119 42.3 196.4 42.3 77.5 0 146.9-16.2 196.5-42.3 42.6-22.5 68.9-51 68.9-80.3 0-29.3-26.3-57.9-68.9-80.3zm245.9 547.3v84.4h0.1c0 29.4 26.4 57.9 69 80.3 49.6 26.2 119 42.3 196.5 42.3 77.5 0 146.9-16.1 196.5-42.3 42.6-22.4 69-50.9 69-80.3h0.1v-84.4c-10.8 7.8-22.6 15.1-35.3 21.8-59.6 31.4-141.1 50.8-230.3 50.8-89.2 0-170.7-19.4-230.3-50.8-12.7-6.7-24.5-14-35.3-21.8zm462.1-203c-49.6-26.1-119-42.3-196.5-42.3-77.5 0-146.9 16.2-196.5 42.3-42.6 22.4-68.9 51-68.9 80.3 0 29.3 26.3 57.8 68.9 80.3 49.6 26.1 119 42.2 196.5 42.2 77.5 0 146.9-16.1 196.5-42.2 42.5-22.5 68.9-51 68.9-80.3 0-29.3-26.4-57.9-68.9-80.3zm-1350.1 203c-10.7 7.8-22.5 15.1-35.2 21.8-59.6 31.4-141.1 50.8-230.3 50.8-89.2 0-170.7-19.4-230.3-50.8-12.7-6.7-24.5-14-35.3-21.8v84.4h0.1c0 29.4 26.4 57.9 69 80.3 49.6 26.2 119 42.3 196.5 42.3 77.5 0 146.9-16.1 196.5-42.3 42.6-22.4 68.9-50.9 68.9-80.3h0.2zm-69.1-203c-49.6-26.1-119-42.3-196.5-42.3-77.4 0-146.8 16.2-196.4 42.3-42.6 22.4-69 51-69 80.3 0 29.3 26.4 57.8 69 80.3 49.6 26.1 119 42.3 196.4 42.3 77.5 0 146.9-16.2 196.5-42.3 42.6-22.5 68.9-51 68.9-80.3 0-29.3-26.3-57.9-68.9-80.3z"/></svg>