<svg version="1.2" xmlns="http://www.w3.org/2000/svg" viewBox="0 0 800 800" width="800" height="800"><path d="m618.5 714.3h-89.7q0.5 0.8 0.9 1.7c1.5 3.4 2.4 7.1 2.5 10.9l0.7 32.8c0.2 3.8-0.4 7.5-1.8 11-1.3 3.5-3.3 6.7-5.8 9.5-2.6 2.7-5.7 4.9-9.1 6.5-3.4 1.5-7.1 2.4-10.9 2.5l-0.9 0.2c-3.7 0-7.3-0.7-10.7-2.1-3.4-1.3-6.6-3.4-9.2-5.9-2.6-2.6-4.8-5.6-6.2-8.9-1.5-3.4-2.4-7-2.5-10.7l-0.7-32.8c-0.2-3.8 0.5-7.5 1.8-11q0.7-1.9 1.7-3.7h-53.4q0.5 0.8 0.9 1.7c1.5 3.4 2.4 7.1 2.5 10.9l0.7 22.8c0.2 3.8-0.5 7.5-1.8 11-1.3 3.5-3.3 6.7-5.9 9.5-2.5 2.7-5.6 4.9-9 6.5-3.4 1.5-7.1 2.4-10.9 2.5l-1 0.2c-3.6 0-7.3-0.7-10.7-2.1-3.4-1.3-6.5-3.4-9.1-5.9-2.7-2.6-4.8-5.6-6.3-9-1.5-3.3-2.3-6.9-2.4-10.6l-0.7-22.9c-0.2-3.7 0.4-7.4 1.8-11q0.7-1.8 1.6-3.6h-53.4c2.1 3.9 3.3 8.2 3.5 12.8l0.8 32.8c0.1 3.8-0.5 7.5-1.9 11-1.3 3.5-3.3 6.7-5.8 9.5-2.6 2.7-5.7 4.9-9.1 6.5-3.4 1.5-7.1 2.4-10.9 2.5h-1c-3.6 0-7.3-0.7-10.7-2.1-3.4-1.3-6.5-3.4-9.1-5.9-2.6-2.6-4.8-5.6-6.3-9-1.4-3.3-2.3-6.9-2.4-10.6l-0.8-32.9c-0.1-5.1 1.1-10.2 3.5-14.6h-89.8c-12.6 0-25-2.5-36.6-7.4-11.6-4.8-22.2-11.8-31.1-20.7-8.9-8.9-15.9-19.5-20.7-31.1-4.9-11.6-7.4-24-7.4-36.6v-94.3c-2.1 1.9-4.5 3.4-7.2 4.6-3.4 1.6-7.1 2.5-10.8 2.6l-32.9 0.8h-1c-7.5 0.1-14.9-2.8-20.3-8-5.4-5.3-8.6-12.5-8.7-20.1-0.1-7.6 2.8-14.9 8-20.3 5.3-5.5 12.5-8.6 20.1-8.7l32.8-0.8c3.8-0.1 7.5 0.6 11 1.9 3.3 1.3 6.4 3.2 9 5.5v-61.1c-5 4.4-11.3 7-18 7.2l-22.9 0.8h-1c-7.5 0.1-14.9-2.8-20.3-8.1-5.4-5.2-8.6-12.5-8.7-20-0.1-7.6 2.8-14.9 8-20.4 5.3-5.4 12.5-8.5 20.1-8.7l22.9-0.7c7.3-0.3 14.4 2.3 19.9 7.2v-61c-5 4.5-11.3 7-18 7.3l-32.9 0.7h-1c-7.5 0.2-14.9-2.7-20.3-8-5.4-5.3-8.6-12.5-8.7-20.1-0.1-7.5 2.8-14.9 8-20.3 5.3-5.4 12.5-8.6 20.1-8.7l32.9-0.8c7.3-0.2 14.4 2.4 19.9 7.3v-92.8c0-12.6 2.5-25 7.4-36.6 4.8-11.6 11.8-22.2 20.7-31.1 8.9-8.9 19.5-15.9 31.1-20.7 11.6-4.9 24-7.4 36.6-7.4h90.2q-0.5-1-1-2c-1.5-3.3-2.3-6.9-2.5-10.6l-0.8-32.8c-0.1-3.8 0.5-7.5 1.8-11 1.3-3.6 3.3-6.8 5.9-9.5 2.6-2.8 5.6-5 9.1-6.6 3.4-1.5 7.1-2.4 10.8-2.5 3.8-0.1 7.5 0.5 11 1.9 3.5 1.3 6.7 3.3 9.4 5.9 2.8 2.5 5 5.6 6.6 9 1.5 3.4 2.4 7 2.6 10.8l0.7 32.8c0.2 3.8-0.5 7.5-1.8 11q-0.7 1.9-1.7 3.6h53.5q-0.5-1-1-2c-1.5-3.3-2.3-6.9-2.5-10.6l-0.7-22.8c-0.2-3.8 0.4-7.5 1.7-11 1.4-3.6 3.3-6.8 5.9-9.6 2.6-2.7 5.7-4.9 9.1-6.5 3.4-1.5 7.1-2.4 10.9-2.5 3.7-0.2 7.5 0.3 11.1 1.6 3.5 1.3 6.8 3.3 9.5 5.9 2.8 2.6 5 5.7 6.5 9.1 1.5 3.5 2.3 7.2 2.4 11l0.7 22.9c0.2 3.7-0.5 7.4-1.8 10.9q-0.7 1.9-1.6 3.6h53.4q-0.5-1-1-2c-1.5-3.3-2.3-6.9-2.5-10.6l-0.7-32.8c-0.2-3.8 0.4-7.5 1.8-11 1.3-3.6 3.3-6.8 5.8-9.6 2.6-2.7 5.7-4.9 9.1-6.5 3.4-1.5 7.1-2.4 10.9-2.5 3.8-0.2 7.5 0.3 11.1 1.6 3.5 1.3 6.8 3.3 9.6 5.9 2.7 2.5 4.9 5.7 6.4 9.1 1.6 3.5 2.4 7.2 2.4 11l0.7 32.9c0.2 3.7-0.5 7.4-1.8 10.9q-0.7 1.9-1.6 3.6h89.4c12.6 0 25 2.5 36.6 7.4 11.6 4.8 22.2 11.8 31.1 20.7 8.9 8.9 15.9 19.5 20.7 31.1 4.9 11.6 7.4 24 7.4 36.6v94.3c5-4.3 11.4-6.7 18-6.9l32.9-0.7c7.6-0.3 14.9 2.5 20.5 7.7 5.5 5.2 8.8 12.3 9 19.9 0.3 7.6-2.5 14.9-7.7 20.5-5.2 5.5-12.3 8.8-19.9 9l-32.9 0.8h-0.9c-7 0.1-13.7-2.3-19-6.8v60.1c5-4.3 11.4-6.7 18-6.8l22.9-0.8c7.6-0.2 14.9 2.5 20.5 7.7 5.5 5.2 8.7 12.3 9 19.9 0.3 7.6-2.5 14.9-7.7 20.5-5.1 5.5-12.3 8.8-19.9 9l-22.8 0.8h-1c-7 0.1-13.7-2.3-19-6.8v60.1c5-4.3 11.4-6.7 18-6.8l32.9-0.8c7.6-0.2 14.9 2.6 20.5 7.7 5.5 5.2 8.8 12.4 9 20 0.3 7.5-2.5 14.9-7.7 20.4-5.2 5.6-12.3 8.8-19.9 9.1l-32.9 0.7h-0.9c-7 0.2-13.7-2.3-19-6.8v92c0 12.6-2.5 25-7.4 36.6-4.8 11.6-11.8 22.2-20.7 31.1-8.9 8.9-19.5 15.9-31.1 20.7-11.6 4.9-24 7.4-36.6 7.4zm-437-571.4c-5.1 0-10.1 1-14.8 2.9-4.7 2-8.9 4.8-12.5 8.4-3.6 3.6-6.4 7.8-8.4 12.5-1.9 4.7-2.9 9.7-2.9 14.8v437c0 5.1 1 10.1 2.9 14.8 2 4.7 4.8 8.9 8.4 12.5 3.6 3.6 7.8 6.4 12.5 8.4 4.7 1.9 9.7 2.9 14.8 2.9h437c5.1 0 10.1-1 14.8-2.9 4.7-2 8.9-4.8 12.5-8.4 3.6-3.6 6.4-7.8 8.4-12.5 1.9-4.7 2.9-9.7 2.9-14.8v-437c0-5.1-1-10.1-2.9-14.8-2-4.7-4.8-8.9-8.4-12.5-3.6-3.6-7.8-6.4-12.5-8.4-4.7-1.9-9.7-2.9-14.8-2.9z"/><path  d="m505.6 565.7h-211.2c-7.9 0-15.7-1.6-23-4.6-7.3-3-13.9-7.4-19.5-13-5.6-5.6-10-12.2-13-19.5-3-7.3-4.6-15.1-4.6-23v-211.2c0-7.9 1.6-15.7 4.6-23 3-7.3 7.4-13.9 13-19.5 5.6-5.6 12.2-10 19.5-13 7.3-3 15.1-4.6 23-4.6h211.2c7.9 0 15.7 1.6 23 4.6 7.3 3 13.9 7.4 19.5 13 5.6 5.6 10 12.2 13 19.5 3 7.3 4.6 15.1 4.6 23v211.2c0 7.9-1.6 15.7-4.6 23-3 7.3-7.4 13.9-13 19.5-5.6 5.6-12.2 10-19.5 13-7.3 3-15.1 4.6-23 4.6zm-211.2-274.3q-0.6 0-1.1 0.3-0.6 0.2-1 0.6-0.4 0.4-0.6 1-0.3 0.5-0.3 1.1v211.2q0 0.6 0.3 1.1 0.2 0.6 0.6 1 0.4 0.4 1 0.6 0.5 0.3 1.1 0.3h211.2q0.6 0 1.1-0.3 0.6-0.2 1-0.6 0.4-0.4 0.6-1 0.3-0.5 0.3-1.1v-211.2q0-0.6-0.3-1.1-0.2-0.6-0.6-1-0.4-0.4-1-0.6-0.5-0.3-1.1-0.3z"/></svg>