<svg version="1.2" xmlns="http://www.w3.org/2000/svg" viewBox="0 0 800 800" width="800" height="800"><path d="m318.3 753.1c-52.3 0-94.8-33.9-94.8-75.8 0-41.9 42.5-75.9 94.8-75.9 21.4 0 41.1 5.7 56.9 15.2v-295.5h37.9v356.2c0 41.9-42.4 75.8-94.8 75.8zm341.4-75.8c-52.4 0-94.8-34-94.8-75.9 0-41.9 42.4-75.8 94.8-75.8 21.3 0 41 5.6 56.9 15.1v-255.6h37.9v316.3c0 41.9-42.5 75.9-94.8 75.9zm-284.5-382.9c0-4.7 0.9-9.3 2.6-13.6 1.6-4.4 4.1-8.4 7.2-11.8 3.1-3.5 6.9-6.4 11-8.5 4.2-2.1 8.7-3.4 13.4-3.8l303.4-30.4c5.2-0.5 10.6 0.1 15.6 1.7 5 1.7 9.7 4.4 13.6 7.9 3.9 3.6 7.1 7.9 9.2 12.8 2.2 4.8 3.3 10.1 3.3 15.4v33.9l-379.3 37.9z"/><path d="m353 220.6c-3.8-22.7-17.1-41.7-37.9-55-34.2-22.7-62.6-54.9-81.6-91l-7.5-15.1c-3.8-7.6-13.3-11.4-20.9-9.5-7.6 0-13.3 7.6-13.3 17v299.7c-15.2-9.5-36-15.2-56.9-15.2-53.1 0-94.8 34.1-94.8 75.8 0 41.8 41.7 75.9 94.8 75.9 53.1 0 94.8-34.1 94.8-75.9v-292c19 22.8 39.9 43.6 64.5 60.7 11.4 7.6 19 19 20.9 32.2 1.9 13.3 0 26.6-7.6 38-5.7 9.4-3.8 20.8 5.7 26.5 9.5 5.7 20.8 3.8 26.5-5.7 13.3-20.8 19-43.6 13.3-66.4z"/></svg>